<?xml version="1.0" encoding="utf-8"?>
<!-- Generator: Adobe Illustrator 19.2.0, SVG Export Plug-In . SVG Version: 6.00 Build 0)  -->
<svg version="1.1" id="Layer_1" xmlns="http://www.w3.org/2000/svg" xmlns:xlink="http://www.w3.org/1999/xlink" x="0px" y="0px"
	 viewBox="0 0 214.5 80" style="enable-background:new 0 0 214.5 80;" xml:space="preserve">
<style type="text/css">
	.st0{fill:#1D1C1D;}
</style>
<g id="LOGO">
	<polygon class="st0" points="28.9,67.6 28.9,12.3 59.6,12.3 59.6,24.6 41.2,24.6 41.2,67.6 	"/>
	<circle class="st0" cx="15.3" cy="18.8" r="8.1"/>
	<circle class="st0" cx="199.2" cy="60.6" r="8.1"/>
	<path class="st0" d="M91.7,24.7V35h-3.1c-3.5,0-6.3,0.9-8.4,2.8S77,42.5,77,46.2v21.4H65.3v-43h10.8v5.2c3-3.8,6.9-5.7,11.8-5.7
		C89.3,24.1,90.6,24.3,91.7,24.7z"/>
	<path class="st0" d="M138.1,48.7c0,6-1.9,10.8-5.6,14.4c-3.7,3.7-8.4,5.5-14.1,5.5c-5.8,0-10.5-1.8-14.3-5.5
		c-3.7-3.6-5.6-8.5-5.6-14.5v-24h11.7v25c0,2.5,0.8,4.5,2.3,6c1.5,1.5,3.5,2.3,5.9,2.3c2.3,0,4.2-0.8,5.7-2.3c1.5-1.5,2.3-3.5,2.3-6
		v-25h11.7V48.7z"/>
	<path class="st0" d="M186.3,50.1h-30.2c0.8,2.7,2.2,4.8,4.3,6.3c2.1,1.5,4.7,2.2,7.9,2.2c4.2,0,8.2-1.4,12-4.3l4.9,8
		c-5.1,4.3-10.8,6.4-17.2,6.4c-6.8,0-12.4-2.2-16.8-6.5c-4.5-4.3-6.7-9.6-6.7-16c0-6.3,2.2-11.6,6.5-16c4.3-4.3,9.6-6.5,16-6.5
		c6,0,10.8,1.9,14.6,5.7c3.8,3.8,5.6,8.6,5.6,14.2C187.1,45.7,186.8,47.9,186.3,50.1z M159.9,35.5c-1.9,1.6-3.1,3.7-3.8,6.3h19.6
		c-0.1-2.7-1-4.8-2.8-6.3c-1.8-1.6-4-2.3-6.5-2.3C163.9,33.1,161.7,33.9,159.9,35.5z"/>
</g>
</svg>
